<?xml version="1.0" encoding="utf-8" standalone="no"?><svg xmlns="http://www.w3.org/2000/svg" xmlns:xlink="http://www.w3.org/1999/xlink" enable-background="new 0 0 346 366" fill="#000000" id="Layer_1" version="1.1" viewBox="0 0 346 366" x="0px" xml:space="preserve" y="0px">
<g>
	<g>
		<g>
			<g id="change1_1"><polygon fill="#ffe4e6" points="321,150 173,310 25,150 85,76 261,76    "/></g>
			<g id="change2_1"><path d="M173,314c-1.1,0-2.2-0.5-2.9-1.3l-148-160c-1.4-1.5-1.4-3.7-0.2-5.2l60-74c0.8-0.9,1.9-1.5,3.1-1.5h176     c1.2,0,2.3,0.5,3.1,1.5l60,74c1.3,1.5,1.2,3.8-0.2,5.2l-148,160C175.2,313.5,174.1,314,173,314z M30.3,149.8L173,304.1     l142.7-154.3L259.1,80H86.9L30.3,149.8z" fill="#f43f5e"/></g>
		</g>
		<g>
			<g id="change2_2"><path d="M321,154H25c-2.2,0-4-1.8-4-4s1.8-4,4-4h296c2.2,0,4,1.8,4,4S323.2,154,321,154z" fill="#f43f5e"/></g>
		</g>
		<g>
			<g id="change2_3"><path d="M173,314c-0.5,0-0.9-0.1-1.4-0.3c-2.1-0.8-3.1-3.1-2.3-5.1l59.2-157.9l-58.6-72.2     c-1.4-1.7-1.1-4.2,0.6-5.6c1.7-1.4,4.2-1.1,5.6,0.6l60,74c0.9,1.1,1.1,2.6,0.6,3.9l-60,160C176.1,313,174.6,314,173,314z" fill="#f43f5e"/></g>
		</g>
		<g>
			<g id="change2_4"><path d="M173,314c-1.6,0-3.1-1-3.7-2.6l-60-160c-0.5-1.3-0.3-2.8,0.6-3.9l60-74c1.4-1.7,3.9-2,5.6-0.6     c1.7,1.4,2,3.9,0.6,5.6l-58.6,72.2l59.2,157.9c0.8,2.1-0.3,4.4-2.3,5.1C173.9,313.9,173.5,314,173,314z" fill="#f43f5e"/></g>
		</g>
	</g>
	<g>
		<g>
			<g id="change2_5"><path d="M13,306c-7.2,0-13-5.8-13-13s5.8-13,13-13s13,5.8,13,13S20.2,306,13,306z M13,286c-3.9,0-7,3.1-7,7     s3.1,7,7,7s7-3.1,7-7S16.9,286,13,286z" fill="#f43f5e"/></g>
		</g>
		<g>
			<g id="change2_6"><path d="M333,86c-7.2,0-13-5.8-13-13s5.8-13,13-13s13,5.8,13,13S340.2,86,333,86z M333,66c-3.9,0-7,3.1-7,7     s3.1,7,7,7s7-3.1,7-7S336.9,66,333,66z" fill="#f43f5e"/></g>
		</g>
		<g>
			<g id="change2_7"><path d="M13,96C5.8,96,0,90.2,0,83s5.8-13,13-13s13,5.8,13,13S20.2,96,13,96z M13,76c-3.9,0-7,3.1-7,7s3.1,7,7,7     s7-3.1,7-7S16.9,76,13,76z" fill="#f43f5e"/></g>
		</g>
		<g>
			<g id="change2_8"><path d="M233,366c-7.2,0-13-5.8-13-13s5.8-13,13-13s13,5.8,13,13S240.2,366,233,366z M233,346c-3.9,0-7,3.1-7,7     s3.1,7,7,7s7-3.1,7-7S236.9,346,233,346z" fill="#f43f5e"/></g>
		</g>
		<g>
			<g>
				<g id="change2_9"><path d="M103,26c-1.7,0-3-1.3-3-3V3c0-1.7,1.3-3,3-3s3,1.3,3,3v20C106,24.7,104.7,26,103,26z" fill="#f43f5e"/></g>
			</g>
			<g>
				<g id="change2_10"><path d="M113,16H93c-1.7,0-3-1.3-3-3s1.3-3,3-3h20c1.7,0,3,1.3,3,3S114.7,16,113,16z" fill="#f43f5e"/></g>
			</g>
		</g>
		<g>
			<g>
				<g id="change2_11"><path d="M293,56c-1.7,0-3-1.3-3-3V33c0-1.7,1.3-3,3-3s3,1.3,3,3v20C296,54.7,294.7,56,293,56z" fill="#f43f5e"/></g>
			</g>
			<g>
				<g id="change2_12"><path d="M303,46h-20c-1.7,0-3-1.3-3-3s1.3-3,3-3h20c1.7,0,3,1.3,3,3S304.7,46,303,46z" fill="#f43f5e"/></g>
			</g>
		</g>
		<g>
			<g>
				<g id="change2_13"><path d="M63,326c-1.7,0-3-1.3-3-3v-20c0-1.7,1.3-3,3-3s3,1.3,3,3v20C66,324.7,64.7,326,63,326z" fill="#f43f5e"/></g>
			</g>
			<g>
				<g id="change2_14"><path d="M73,316H53c-1.7,0-3-1.3-3-3s1.3-3,3-3h20c1.7,0,3,1.3,3,3S74.7,316,73,316z" fill="#f43f5e"/></g>
			</g>
		</g>
		<g>
			<g>
				<g id="change2_15"><path d="M323,286c-1.7,0-3-1.3-3-3v-20c0-1.7,1.3-3,3-3s3,1.3,3,3v20C326,284.7,324.7,286,323,286z" fill="#f43f5e"/></g>
			</g>
			<g>
				<g id="change2_16"><path d="M333,276h-20c-1.7,0-3-1.3-3-3s1.3-3,3-3h20c1.7,0,3,1.3,3,3S334.7,276,333,276z" fill="#f43f5e"/></g>
			</g>
		</g>
	</g>
</g>
</svg>