<?xml version="1.0" encoding="UTF-8" standalone="no"?><svg xmlns="http://www.w3.org/2000/svg" xmlns:xlink="http://www.w3.org/1999/xlink" fill="#fef2f2" height="78.7" preserveAspectRatio="xMidYMid meet" version="1" viewBox="-0.1 -0.2 76.8 78.7" width="76.8" zoomAndPan="magnify"><g data-name="13" id="change1_1"><path d="M71.97,26.3l-1.01-4.62-.53.18a8.153,8.153,0,0,0-4.97,4.88,7.494,7.494,0,0,0-.12,4.15l-.58.71a23.18,23.18,0,0,0-8.59-4.48V16.346c0-3.53-1.7-5.25-5.21-5.25H42.33c-.75-3.1-2.14-4.15-5.39-4.15l-.33-.01a5.446,5.446,0,0,0-.81.02.59.59,0,0,1-.37-.04c-.04-.03-.1-.13-.13-.43a7.268,7.268,0,0,0-14.27-1.01,5.33,5.33,0,0,0-.11.6c-.05.32-.11.75-.24.84a1.849,1.849,0,0,1-1,.06,1.984,1.984,0,0,0-.59-.03c-3.1,0-4.59,1.17-5.23,4.15H5.08C1.76,11.1,0,12.866,0,16.216V73.4a4.563,4.563,0,0,0,4.96,4.96H51.07c3.34,0,5.11-1.76,5.11-5.09v-4.36A21.628,21.628,0,0,0,72.02,49.9a22.181,22.181,0,0,0-5.03-16.08l.6-.5a7.751,7.751,0,0,0,4.86-.64,8.025,8.025,0,0,0,4.05-5.06l.13-.53ZM17.36,14.686c-.01-.99-.01-1.99,0-2.98.01-.93.35-1.26,1.27-1.28.66-.02,1.33-.01,1.99-.01h1.61c1.44-.02,2.01-.6,2.05-2.05l.01-.42a8.248,8.248,0,0,1,.05-1.11A3.775,3.775,0,0,1,28.05,3.5h.03a3.785,3.785,0,0,1,3.76,3.35c.04.35.04.7.05,1.05,0,.23,0,.45.01.67a1.7,1.7,0,0,0,1.86,1.84c.69.02,1.37.01,2.05.01.55,0,1.1,0,1.65.01,1.03.01,1.35.33,1.36,1.38,0,1.17.01,2.34,0,3.51-.01.98-.34,1.32-1.32,1.32-2.26.01-4.52,0-6.79,0H18.84c-1.2,0-1.48-.29-1.48-1.52Zm35.32,58.67c0,1.22-.28,1.51-1.49,1.51H4.99a1.7,1.7,0,0,1-1.2-.3,1.733,1.733,0,0,1-.3-1.21l.01-15.12q.015-10.92.01-21.84,0-6.135-.01-12.29v-7.94a1.819,1.819,0,0,1,.29-1.29,1.938,1.938,0,0,1,1.31-.29h8.76v.13c0,.33,0,.64.01.95a4.441,4.441,0,0,0,4.42,4.45c6.35.03,12.94.03,19.59,0a4.443,4.443,0,0,0,4.43-4.45c.01-.28,0-.57,0-.91v-.17h8.57c1.62,0,1.8.18,1.8,1.76v10.1A21.313,21.313,0,0,0,35.9,31.9H27.24a5.781,5.781,0,0,0-.72.03,1.716,1.716,0,0,0-.04,3.41,3.9,3.9,0,0,0,.59.04h5.76a21.437,21.437,0,0,0-3.87,10.39H27.22a5.781,5.781,0,0,0-.73.03,1.715,1.715,0,0,0,.02,3.41,2.966,2.966,0,0,0,.42.03h1.96a21.785,21.785,0,0,0,3.33,10.4h-5.1c-.05,0-.11-.01-.17-.01a1,1,0,0,0-.8.17l-.14.13a2.833,2.833,0,0,0-.99,1.29,1.3,1.3,0,0,0,.14,1.04,1.723,1.723,0,0,0,1.1.76,3.976,3.976,0,0,0,.96.08h7.75a21.594,21.594,0,0,0,15.5,6.59,20.455,20.455,0,0,0,2.21-.12ZM64.32,60.2a18.648,18.648,0,0,1-8.14,5.39,17.227,17.227,0,0,1-3.5.78,12.455,12.455,0,0,1-1.37.13,17.949,17.949,0,0,1-11.5-3.4,16.535,16.535,0,0,1-1.67-1.36,20.5,20.5,0,0,1-1.97-2.1,18.685,18.685,0,0,1-4.14-10.4c-.03-.29-.04-.59-.05-.88a18.573,18.573,0,0,1,.12-2.59,18.108,18.108,0,0,1,4.86-10.39,3.653,3.653,0,0,1,.27-.3,18.686,18.686,0,0,1,4.1-3.18,18.357,18.357,0,0,1,9.14-2.44,16.294,16.294,0,0,1,2.21.14,18.174,18.174,0,0,1,9.76,4.32l-3.4,3.27a15.641,15.641,0,0,0-2.87-1.73,13.051,13.051,0,0,0-3.49-1.08,12.892,12.892,0,0,0-3.57-.08,13.685,13.685,0,0,0-1.76.28,13.032,13.032,0,0,0-2.43.79,13.369,13.369,0,0,0-5.61,4.61,13.61,13.61,0,0,0-2.4,5.79,13.028,13.028,0,0,0-.12,3.47,13.956,13.956,0,0,0,4.44,8.86,12.192,12.192,0,0,0,2,1.53,13.317,13.317,0,0,0,5.97,2.02,13.113,13.113,0,0,0,3.48-.11,13.35,13.35,0,0,0,6.38-2.84,13.875,13.875,0,0,0,2.37-19.12l3.28-3.31A18.27,18.27,0,0,1,64.32,60.2Zm-20.64-4.16a10.522,10.522,0,0,1-3.66-6.81c-.02-.18-.04-.36-.05-.55a10.085,10.085,0,0,1,.22-2.91,10.627,10.627,0,0,1,2.53-4.94,10.45,10.45,0,0,1,7.29-3.39c.17-.01.34-.01.52-.01a9.509,9.509,0,0,1,2.15.23,9.41,9.41,0,0,1,3.49,1.47c.22.15.43.31.64.48l-.64.64-2.36,2.36a7.08,7.08,0,0,0-1.13-.48,6.538,6.538,0,0,0-4.64.04,6.286,6.286,0,0,0-3.69,7.06,6.067,6.067,0,0,0,1.37,2.81,6.335,6.335,0,0,0,6.96,1.82,5.362,5.362,0,0,0,.97-.46,6.091,6.091,0,0,0,2.52-3.65,7.444,7.444,0,0,0-.429-5.012L58.8,41.706c2.69,2.96,3.19,8.93-.22,12.98a11.276,11.276,0,0,1-2.4,2.14,10.577,10.577,0,0,1-3.5,1.46,9.541,9.541,0,0,1-1.42.22A10.268,10.268,0,0,1,43.68,56.036Zm4.29-9.9.18-.24a2.787,2.787,0,0,1,2.16-1,3.188,3.188,0,0,1,.8.1l-1.59,1.7c-.05.053-.116.127-.188.219,0,0-.087.11-.152.211a1.657,1.657,0,0,0-.2,1.3,1.559,1.559,0,0,0,.45.67,1.865,1.865,0,0,0,.242.2,1.5,1.5,0,0,0,.334.169c.014.005.021.013.036.018s.033,0,.049.008a1.53,1.53,0,0,0,.409.07,1.852,1.852,0,0,0,1.25-.65c.32-.34.63-.7.93-1.04.09-.1.17-.19.25-.29l.42-.42a2.891,2.891,0,0,1-.67,2.97,3.728,3.728,0,0,1-.36.32,3.13,3.13,0,0,1-3.99-.24,2.944,2.944,0,0,1-.69-1A3.225,3.225,0,0,1,47.97,46.136Zm22.62-16.12a2.723,2.723,0,0,1-2.12.14c-.41-1.71-.26-2.41.54-3.1l.46,1.86,1.91.42A2.45,2.45,0,0,1,70.59,30.016ZM7.45,34.856a1.735,1.735,0,0,1,1.2-2.96,1.911,1.911,0,0,1,1.3.56c.7.7,1.37,1.42,2.07,2.17l.62.66,5.09-6.1c.23-.28.46-.56.71-.82a1.7,1.7,0,0,1,2.4-.26,1.747,1.747,0,0,1,.66,1.15,1.85,1.85,0,0,1-.42,1.35c-.8,1-1.63,1.99-2.45,2.97l-1.99,2.38c-.78.93-1.56,1.86-2.32,2.8a1.949,1.949,0,0,1-1.37.82.277.277,0,0,1-.09.01,1.772,1.772,0,0,1-1.22-.55C10.4,37.856,9.11,36.566,7.45,34.856ZM21.27,44.2a2.653,2.653,0,0,1-.44.6l-.11.13q-3.105,3.735-6.21,7.45a2.288,2.288,0,0,1-1.59,1.04h-.06a2.433,2.433,0,0,1-1.64-.91c-1.23-1.22-2.41-2.4-3.59-3.59a1.757,1.757,0,1,1,2.47-2.45c.65.65,1.29,1.31,1.97,2l.61.64,5.16-6.18a8.709,8.709,0,0,1,.76-.85,1.638,1.638,0,0,1,2.33-.09A1.666,1.666,0,0,1,21.27,44.2Zm-.36,11.7c.79.69.77,1.73-.04,2.72q-.825,1.005-1.65,1.98l-1.95,2.35q-1.425,1.695-2.85,3.41a2.148,2.148,0,0,1-1.5.92.2.2,0,0,1-.07.01,2.157,2.157,0,0,1-1.46-.75c-1.27-1.26-2.54-2.52-3.79-3.79a2.075,2.075,0,0,1-.65-1.47,1.684,1.684,0,0,1,.55-1.19,1.78,1.78,0,0,1,2.57.2c.67.67,1.32,1.35,2,2.06l.61.64,5.14-6.17c.11-.14.23-.28.35-.42a2.361,2.361,0,0,1,1.55-.94A1.615,1.615,0,0,1,20.91,55.9Z"/></g></svg>