<svg width="403" height="138" viewBox="0 0 403 138" fill="none" xmlns="http://www.w3.org/2000/svg">
<path d="M17.4541 31H68.9287L86.087 50.0882L43.1914 97L0 50.0882L17.4541 31Z" fill="white"/>
<path d="M17.7776 42.3235H43.1916V84.4324L11.2693 49.4412L17.7776 42.3235Z" fill="#E59D9A"/>
<path d="M107.153 31.2H122.475C127.801 31.2 131.687 32.4533 134.131 34.96C136.575 37.404 137.797 41.1953 137.797 46.334V50.376C137.797 57.2067 135.541 61.5307 131.029 63.348V63.536C133.535 64.288 135.29 65.8233 136.293 68.142C137.358 70.4607 137.891 73.5627 137.891 77.448V89.01C137.891 90.89 137.953 92.4253 138.079 93.616C138.204 94.744 138.517 95.872 139.019 97H128.491C128.115 95.9347 127.864 94.932 127.739 93.992C127.613 93.052 127.551 91.36 127.551 88.916V76.884C127.551 73.876 127.049 71.7767 126.047 70.586C125.107 69.3953 123.446 68.8 121.065 68.8H117.493V97H107.153V31.2ZM121.253 59.4C123.321 59.4 124.856 58.8673 125.859 57.802C126.924 56.7367 127.457 54.9507 127.457 52.444V47.368C127.457 44.9867 127.018 43.2633 126.141 42.198C125.326 41.1327 124.01 40.6 122.193 40.6H117.493V59.4H121.253ZM160.105 97.94C155.092 97.94 151.269 96.53 148.637 93.71C146.005 90.8273 144.689 86.7227 144.689 81.396V31.2H155.029V82.148C155.029 84.404 155.468 86.0333 156.345 87.036C157.285 88.0387 158.601 88.54 160.293 88.54C161.985 88.54 163.27 88.0387 164.147 87.036C165.087 86.0333 165.557 84.404 165.557 82.148V31.2H175.521V81.396C175.521 86.7227 174.205 90.8273 171.573 93.71C168.941 96.53 165.118 97.94 160.105 97.94ZM182.885 31.2H198.489C203.816 31.2 207.701 32.4533 210.145 34.96C212.589 37.404 213.811 41.1953 213.811 46.334V48.966C213.811 52.35 213.247 55.1073 212.119 57.238C211.054 59.3687 209.393 60.904 207.137 61.844V62.032C212.276 63.7867 214.845 68.3613 214.845 75.756V81.396C214.845 86.472 213.498 90.3573 210.803 93.052C208.171 95.684 204.286 97 199.147 97H182.885V31.2ZM197.267 57.99C199.335 57.99 200.871 57.4573 201.873 56.392C202.939 55.3267 203.471 53.5407 203.471 51.034V47.368C203.471 44.9867 203.033 43.2633 202.155 42.198C201.341 41.1327 200.025 40.6 198.207 40.6H193.225V57.99H197.267ZM199.147 87.6C200.965 87.6 202.312 87.13 203.189 86.19C204.067 85.1873 204.505 83.4953 204.505 81.114V75.38C204.505 72.372 203.973 70.304 202.907 69.176C201.905 67.9853 200.213 67.39 197.831 67.39H193.225V87.6H199.147ZM228.914 68.988L216.412 31.2H227.41L234.46 55.358H234.648L241.698 31.2H251.756L239.254 68.988V97H228.914V68.988Z" fill="white"/>
<path d="M256.415 31.2H271.643C276.781 31.2 280.635 32.5787 283.205 35.336C285.774 38.0933 287.059 42.1353 287.059 47.462V53.948C287.059 59.2747 285.774 63.3167 283.205 66.074C280.635 68.8313 276.781 70.21 271.643 70.21H266.755V97H256.415V31.2ZM271.643 60.81C273.335 60.81 274.588 60.34 275.403 59.4C276.28 58.46 276.719 56.862 276.719 54.606V46.804C276.719 44.548 276.28 42.95 275.403 42.01C274.588 41.07 273.335 40.6 271.643 40.6H266.755V60.81H271.643ZM292.674 31.2H320.874V40.6H303.014V57.99H317.208V67.39H303.014V87.6H320.874V97H292.674V31.2ZM326.823 31.2H342.145C347.471 31.2 351.357 32.4533 353.801 34.96C356.245 37.404 357.467 41.1953 357.467 46.334V50.376C357.467 57.2067 355.211 61.5307 350.699 63.348V63.536C353.205 64.288 354.96 65.8233 355.963 68.142C357.028 70.4607 357.561 73.5627 357.561 77.448V89.01C357.561 90.89 357.623 92.4253 357.749 93.616C357.874 94.744 358.187 95.872 358.689 97H348.161C347.785 95.9347 347.534 94.932 347.409 93.992C347.283 93.052 347.221 91.36 347.221 88.916V76.884C347.221 73.876 346.719 71.7767 345.717 70.586C344.777 69.3953 343.116 68.8 340.735 68.8H337.163V97H326.823V31.2ZM340.923 59.4C342.991 59.4 344.526 58.8673 345.529 57.802C346.594 56.7367 347.127 54.9507 347.127 52.444V47.368C347.127 44.9867 346.688 43.2633 345.811 42.198C344.996 41.1327 343.68 40.6 341.863 40.6H337.163V59.4H340.923ZM379.775 97.94C374.762 97.94 370.939 96.53 368.307 93.71C365.675 90.8273 364.359 86.7227 364.359 81.396V31.2H374.699V82.148C374.699 84.404 375.138 86.0333 376.015 87.036C376.955 88.0387 378.271 88.54 379.963 88.54C381.655 88.54 382.94 88.0387 383.817 87.036C384.757 86.0333 385.227 84.404 385.227 82.148V31.2H395.191V81.396C395.191 86.7227 393.875 90.8273 391.243 93.71C388.611 96.53 384.788 97.94 379.775 97.94Z" fill="#C0C0C3"/>
</svg>
