<svg width="403" height="138" viewBox="0 0 403 138" fill="none" xmlns="http://www.w3.org/2000/svg">
<path d="M17.4541 31H68.9287L86.087 50.0882L43.1914 97L0 50.0882L17.4541 31Z" fill="#CE3B33"/>
<path d="M17.7775 42.3235H43.1916V84.4324L11.2692 49.4412L17.7775 42.3235Z" fill="#A8312B"/>
<path d="M139.574 97C138.54 94.556 138.446 92.206 138.446 89.01V78.858C138.446 71.996 136.754 67.108 131.584 64.946V64.758C136.19 62.596 138.352 58.272 138.352 51.504V46.334C138.352 36.182 133.746 31.2 123.03 31.2H107.426V97H117.766V70.21H121.338C126.038 70.21 128.106 72.466 128.106 78.576V88.916C128.106 94.274 128.482 95.308 129.046 97H139.574ZM122.748 40.6C126.414 40.6 128.012 42.668 128.012 47.368V53.854C128.012 59.118 125.662 60.81 121.808 60.81H117.766V40.6H122.748ZM144.776 31.2V81.302C144.776 91.83 150.04 97.846 160.192 97.846C170.344 97.846 175.608 91.83 175.608 81.302V31.2H165.832V81.96C165.832 86.66 163.764 88.352 160.474 88.352C157.184 88.352 155.116 86.66 155.116 81.96V31.2H144.776ZM198.303 31.2H182.699V97H198.961C209.301 97 214.659 91.548 214.659 81.396V76.038C214.659 69.082 212.497 64.194 206.951 62.032V61.844C211.557 59.682 213.625 55.452 213.625 48.684V46.334C213.625 36.182 209.019 31.2 198.303 31.2ZM197.645 67.39C202.345 67.39 204.319 69.27 204.319 75.38V81.114C204.319 86.002 202.439 87.6 198.961 87.6H193.039V67.39H197.645ZM198.021 40.6C201.687 40.6 203.285 42.668 203.285 47.368V51.034C203.285 56.298 200.935 57.99 197.081 57.99H193.039V40.6H198.021ZM229.192 97H239.532V75.192L252.598 31.2H242.728L234.926 61.186H234.738L226.936 31.2H216.126L229.192 75.192V97Z" fill="#CE2B21"/>
<path d="M272.008 31.2H256.78V97H267.12V72.278H272.008C282.348 72.278 287.424 66.544 287.424 56.016V47.462C287.424 36.934 282.348 31.2 272.008 31.2ZM272.008 40.6C275.298 40.6 277.084 42.104 277.084 46.804V56.674C277.084 61.374 275.298 62.878 272.008 62.878H267.12V40.6H272.008ZM302.553 40.6H320.413V31.2H292.213V97H320.413V87.6H302.553V68.33H316.747V58.93H302.553V40.6ZM358.969 97C357.935 94.556 357.841 92.206 357.841 89.01V78.858C357.841 71.996 356.149 67.108 350.979 64.946V64.758C355.585 62.596 357.747 58.272 357.747 51.504V46.334C357.747 36.182 353.141 31.2 342.425 31.2H326.821V97H337.161V70.21H340.733C345.433 70.21 347.501 72.466 347.501 78.576V88.916C347.501 94.274 347.877 95.308 348.441 97H358.969ZM342.143 40.6C345.809 40.6 347.407 42.668 347.407 47.368V53.854C347.407 59.118 345.057 60.81 341.203 60.81H337.161V40.6H342.143ZM364.171 31.2V81.302C364.171 91.83 369.435 97.846 379.587 97.846C389.739 97.846 395.003 91.83 395.003 81.302V31.2H385.227V81.96C385.227 86.66 383.159 88.352 379.869 88.352C376.579 88.352 374.511 86.66 374.511 81.96V31.2H364.171Z" fill="#727277"/>
</svg>
